<?xml version="1.0" encoding="UTF-8" standalone="no"?>
<!-- Created with Inkscape (http://www.inkscape.org/) -->

<svg
   xmlns:dc="http://purl.org/dc/elements/1.1/"
   xmlns:cc="http://creativecommons.org/ns#"
   xmlns:rdf="http://www.w3.org/1999/02/22-rdf-syntax-ns#"
   xmlns:svg="http://www.w3.org/2000/svg"
   xmlns="http://www.w3.org/2000/svg"
   xmlns:sodipodi="http://sodipodi.sourceforge.net/DTD/sodipodi-0.dtd"
   xmlns:inkscape="http://www.inkscape.org/namespaces/inkscape"
   width="40"
   height="36.666672"
   viewBox="0 0 40 36.666672"
   id="svg8878"
   version="1.1"
   inkscape:version="0.91 r13725"
   inkscape:export-filename="C:\Users\j1hochre\Desktop\Bilder\Account@1x.png"
   inkscape:export-xdpi="160"
   inkscape:export-ydpi="160"
   sodipodi:docname="Account.svg">
  <defs
     id="defs8880" />
  <sodipodi:namedview
     id="base"
     pagecolor="#ffffff"
     bordercolor="#666666"
     borderopacity="1.0"
     inkscape:pageopacity="0.0"
     inkscape:pageshadow="2"
     inkscape:zoom="7.6124034"
     inkscape:cx="17.68389"
     inkscape:cy="-1.4487432"
     inkscape:document-units="px"
     inkscape:current-layer="layer1"
     showgrid="false"
     fit-margin-top="0"
     fit-margin-left="0"
     fit-margin-right="0"
     fit-margin-bottom="0"
     units="px"
     inkscape:window-width="1920"
     inkscape:window-height="1137"
     inkscape:window-x="-8"
     inkscape:window-y="-8"
     inkscape:window-maximized="1" />
  <metadata
     id="metadata8883">
    <rdf:RDF>
      <cc:Work
         rdf:about="">
        <dc:format>image/svg+xml</dc:format>
        <dc:type
           rdf:resource="http://purl.org/dc/dcmitype/StillImage" />
        <dc:title></dc:title>
      </cc:Work>
    </rdf:RDF>
  </metadata>
  <g
     inkscape:label="Ebene 1"
     inkscape:groupmode="layer"
     id="layer1"
     transform="translate(-330,-481.94553)">
    <path
       inkscape:connector-curvature="0"
       style="fill:#0065a3;fill-opacity:1;fill-rule:nonzero;stroke:none"
       d="m 358.09245,513.6122 -16.88152,0 c 0,0 -2.46745,-12.1224 8.44402,-12.1224 10.91145,0 8.4375,12.1224 8.4375,12.1224 m -8.4375,-26.66667 c 3.34636,0 6.0612,2.71486 6.0612,6.0612 0,3.34636 -2.71484,6.0612 -6.0612,6.0612 -3.34635,0 -6.0612,-2.71484 -6.0612,-6.0612 0,-3.34634 2.71485,-6.0612 6.0612,-6.0612 m 17.01172,-5 -33.33334,0 c -1.84245,0 -3.33333,1.4909 -3.33333,3.33334 l 0,30 c 0,1.84245 1.49088,3.33333 3.33333,3.33333 11.29804,-9.5e-4 23.82926,-9e-5 33.33334,0 1.84245,0 3.33333,-1.49088 3.33333,-3.33333 l 0,-30 c 0,-1.84244 -1.49088,-3.33334 -3.33333,-3.33334"
       id="path2680"
       sodipodi:nodetypes="ccsccsssccsssccssc" />
  </g>
</svg>
