<?xml version="1.0" encoding="UTF-8" standalone="no"?>
<!-- Created with Inkscape (http://www.inkscape.org/) -->

<svg
   xmlns:dc="http://purl.org/dc/elements/1.1/"
   xmlns:cc="http://creativecommons.org/ns#"
   xmlns:rdf="http://www.w3.org/1999/02/22-rdf-syntax-ns#"
   xmlns:svg="http://www.w3.org/2000/svg"
   xmlns="http://www.w3.org/2000/svg"
   xmlns:sodipodi="http://sodipodi.sourceforge.net/DTD/sodipodi-0.dtd"
   xmlns:inkscape="http://www.inkscape.org/namespaces/inkscape"
   width="40"
   height="40"
   viewBox="0 0 40 40.000001"
   id="svg2"
   version="1.1"
   inkscape:version="0.91 r13725"
   inkscape:export-filename="C:\Users\j1hochre\Desktop\Bilder\Compass@1x.png"
   inkscape:export-xdpi="317.64706"
   inkscape:export-ydpi="317.64706"
   sodipodi:docname="Compass.svg">
  <defs
     id="defs4" />
  <sodipodi:namedview
     id="base"
     pagecolor="#ffffff"
     bordercolor="#666666"
     borderopacity="1.0"
     inkscape:pageopacity="0.0"
     inkscape:pageshadow="2"
     inkscape:zoom="10.141019"
     inkscape:cx="5.9708884"
     inkscape:cy="23.272132"
     inkscape:document-units="px"
     inkscape:current-layer="layer1"
     showgrid="false"
     fit-margin-top="0"
     fit-margin-left="0"
     fit-margin-right="0"
     fit-margin-bottom="0"
     units="px"
     inkscape:window-width="1920"
     inkscape:window-height="1137"
     inkscape:window-x="-8"
     inkscape:window-y="-8"
     inkscape:window-maximized="1" />
  <metadata
     id="metadata7">
    <rdf:RDF>
      <cc:Work
         rdf:about="">
        <dc:format>image/svg+xml</dc:format>
        <dc:type
           rdf:resource="http://purl.org/dc/dcmitype/StillImage" />
        <dc:title></dc:title>
      </cc:Work>
    </rdf:RDF>
  </metadata>
  <g
     inkscape:label="Ebene 1"
     inkscape:groupmode="layer"
     id="layer1"
     transform="translate(-569.46426,-1037.4819)">
    <g
       id="g3335"
       transform="matrix(1.2307692,0,0,1.2305837,-131.41485,-248.08576)">
      <path
         id="path2072"
         d="m 585.71429,1073.4361 c -6.88965,0 -12.5,-5.6055 -12.5,-12.5049 0,-6.8897 5.61035,-12.5 12.5,-12.5 6.89453,0 12.5,5.6103 12.5,12.5 0,6.8994 -5.60547,12.5049 -12.5,12.5049 m 0,-28.7549 c -8.97461,0 -16.25,7.2754 -16.25,16.25 0,8.9795 7.27539,16.2549 16.25,16.2549 8.97461,0 16.25,-7.2754 16.25,-16.2549 0,-8.9746 -7.27539,-16.25 -16.25,-16.25"
         style="fill:#0063a2;fill-opacity:1;fill-rule:nonzero;stroke:none"
         inkscape:connector-curvature="0" />
      <path
         id="path2074"
         d="m 587.48186,1062.6988 -7.07031,3.5351 3.53516,-7.0703 z m -8.83789,5.3027 9.72657,-4.4189 4.41894,-9.7168 -9.72168,4.4189 z"
         style="fill:#0063a2;fill-opacity:1;fill-rule:nonzero;stroke:none"
         inkscape:connector-curvature="0" />
    </g>
  </g>
</svg>
