<?xml version="1.0" encoding="UTF-8" standalone="no"?>
<!-- Created with Inkscape (http://www.inkscape.org/) -->

<svg
   xmlns:dc="http://purl.org/dc/elements/1.1/"
   xmlns:cc="http://creativecommons.org/ns#"
   xmlns:rdf="http://www.w3.org/1999/02/22-rdf-syntax-ns#"
   xmlns:svg="http://www.w3.org/2000/svg"
   xmlns="http://www.w3.org/2000/svg"
   xmlns:sodipodi="http://sodipodi.sourceforge.net/DTD/sodipodi-0.dtd"
   xmlns:inkscape="http://www.inkscape.org/namespaces/inkscape"
   width="30.769217"
   height="40"
   viewBox="0 0 30.769219 40.000003"
   id="svg2"
   version="1.1"
   inkscape:version="0.91 r13725"
   sodipodi:docname="Filer.svg"
   inkscape:export-filename="C:\Users\j1hochre\Desktop\Bilder\Filer@3x.png"
   inkscape:export-xdpi="964.28583"
   inkscape:export-ydpi="964.28583">
  <defs
     id="defs4" />
  <sodipodi:namedview
     id="base"
     pagecolor="#ffffff"
     bordercolor="#666666"
     borderopacity="1.0"
     inkscape:pageopacity="0.0"
     inkscape:pageshadow="2"
     inkscape:zoom="7.5358946"
     inkscape:cx="23.103788"
     inkscape:cy="0.76031644"
     inkscape:document-units="px"
     inkscape:current-layer="layer1"
     showgrid="false"
     inkscape:window-width="1920"
     inkscape:window-height="1137"
     inkscape:window-x="-8"
     inkscape:window-y="-8"
     inkscape:window-maximized="1"
     units="px"
     fit-margin-top="0"
     fit-margin-left="0"
     fit-margin-right="0"
     fit-margin-bottom="0" />
  <metadata
     id="metadata7">
    <rdf:RDF>
      <cc:Work
         rdf:about="">
        <dc:format>image/svg+xml</dc:format>
        <dc:type
           rdf:resource="http://purl.org/dc/dcmitype/StillImage" />
        <dc:title></dc:title>
      </cc:Work>
    </rdf:RDF>
  </metadata>
  <g
     inkscape:label="Ebene 1"
     inkscape:groupmode="layer"
     id="layer1"
     transform="translate(-12.816868,-1004.4979)">
    <g
       id="g4148"
       transform="matrix(1.2307693,0,0,1.2307693,-2.9577404,-241.03809)">
      <path
         id="path20644"
         d="m 14.066869,1014.4979 2.49999,-2.5 17.5,0 2.5,2.5 z"
         style="fill:#0065a3;fill-opacity:1;fill-rule:nonzero;stroke:none"
         inkscape:connector-curvature="0" />
      <path
         id="path20646"
         d="m 30.316859,1020.7479 0,1.25 -1.25,0 0,-1.25 -7.5,0 0,1.25 -1.25,0 0,-2.5 10,0 z m -17.49999,3.75 24.99999,0 0,-8.75 -24.99999,0 z"
         style="fill:#0065a3;fill-opacity:1;fill-rule:nonzero;stroke:none"
         inkscape:connector-curvature="0" />
      <path
         id="path20648"
         d="m 30.316859,1030.7479 0,1.25 -1.25,0 0,-1.25 -7.5,0 0,1.25 -1.25,0 0,-2.5 10,0 z m -17.49999,3.75 24.99999,0 0,-8.75 -24.99999,0 z"
         style="fill:#0065a3;fill-opacity:1;fill-rule:nonzero;stroke:none"
         inkscape:connector-curvature="0" />
      <path
         id="path20650"
         d="m 30.316859,1040.7479 0,1.25 -1.25,0 0,-1.25 -7.5,0 0,1.25 -1.25,0 0,-2.5 10,0 z m -17.49999,3.75 24.99999,0 0,-8.75 -24.99999,0 z"
         style="fill:#0065a3;fill-opacity:1;fill-rule:nonzero;stroke:none"
         inkscape:connector-curvature="0" />
    </g>
  </g>
</svg>
