<?xml version="1.0" encoding="UTF-8" standalone="no"?>
<!-- Created with Inkscape (http://www.inkscape.org/) -->

<svg
   xmlns:dc="http://purl.org/dc/elements/1.1/"
   xmlns:cc="http://creativecommons.org/ns#"
   xmlns:rdf="http://www.w3.org/1999/02/22-rdf-syntax-ns#"
   xmlns:svg="http://www.w3.org/2000/svg"
   xmlns="http://www.w3.org/2000/svg"
   xmlns:sodipodi="http://sodipodi.sourceforge.net/DTD/sodipodi-0.dtd"
   xmlns:inkscape="http://www.inkscape.org/namespaces/inkscape"
   width="40"
   height="32.85714"
   viewBox="0 0 40.000001 32.857139"
   id="svg8839"
   version="1.1"
   inkscape:version="0.91 r13725"
   inkscape:export-filename="C:\Users\j1hochre\Desktop\Bilder\News@3x.png"
   inkscape:export-xdpi="964.28571"
   inkscape:export-ydpi="964.28571"
   sodipodi:docname="News.svg">
  <defs
     id="defs8841">
    <mask
       id="mask93">
      <g
         style="filter:url(#alpha)"
         id="g1338">
        <rect
           x="0"
           y="0"
           width="480"
           height="960"
           style="fill:#000000;fill-opacity:0.5;stroke:none"
           id="rect1340" />
      </g>
    </mask>
    <filter
       id="alpha"
       filterUnits="objectBoundingBox"
       x="0"
       y="0"
       width="1"
       height="1">
      <feColorMatrix
         type="matrix"
         in="SourceGraphic"
         values="0 0 0 0 1 0 0 0 0 1 0 0 0 0 1 0 0 0 1 0"
         id="feColorMatrix7" />
    </filter>
    <clipPath
       id="clip155">
      <rect
         y="0"
         x="0"
         width="1"
         height="20"
         id="rect1343" />
    </clipPath>
  </defs>
  <sodipodi:namedview
     id="base"
     pagecolor="#ffffff"
     bordercolor="#666666"
     borderopacity="1.0"
     inkscape:pageopacity="0.0"
     inkscape:pageshadow="2"
     inkscape:zoom="10.657364"
     inkscape:cx="27.735545"
     inkscape:cy="9.7532584"
     inkscape:document-units="px"
     inkscape:current-layer="layer1"
     showgrid="false"
     fit-margin-top="0"
     fit-margin-left="0"
     fit-margin-right="0"
     fit-margin-bottom="0"
     units="px"
     inkscape:window-width="1920"
     inkscape:window-height="1137"
     inkscape:window-x="-8"
     inkscape:window-y="-8"
     inkscape:window-maximized="1" />
  <metadata
     id="metadata8844">
    <rdf:RDF>
      <cc:Work
         rdf:about="">
        <dc:format>image/svg+xml</dc:format>
        <dc:type
           rdf:resource="http://purl.org/dc/dcmitype/StillImage" />
        <dc:title></dc:title>
      </cc:Work>
    </rdf:RDF>
  </metadata>
  <g
     inkscape:label="Ebene 1"
     inkscape:groupmode="layer"
     id="layer1"
     transform="translate(-302.5,-545.30864)">
    <path
       inkscape:connector-curvature="0"
       style="fill:#0065a3;fill-opacity:1;fill-rule:nonzero;stroke:none"
       d="m 338.92857,566.73721 -7.14286,0 c -0.39619,0 -0.71428,-0.31809 -0.71428,-0.71429 0,-0.39063 0.31809,-0.71428 0.71428,-0.71428 l 7.14286,0 c 0.39621,0 0.71429,0.32365 0.71429,0.71428 0,0.3962 -0.31808,0.71429 -0.71429,0.71429 m 0,2.85714 -7.14286,0 c -0.39619,0 -0.71428,-0.31809 -0.71428,-0.71428 0,-0.39063 0.31809,-0.71429 0.71428,-0.71429 l 7.14286,0 c 0.39621,0 0.71429,0.32366 0.71429,0.71429 0,0.39619 -0.31808,0.71428 -0.71429,0.71428 m 0,2.85714 -7.14286,0 c -0.39619,0 -0.71428,-0.31809 -0.71428,-0.71428 0,-0.39063 0.31809,-0.71429 0.71428,-0.71429 l 7.14286,0 c 0.39621,0 0.71429,0.32366 0.71429,0.71429 0,0.39619 -0.31808,0.71428 -0.71429,0.71428 m 0,2.85715 -7.14286,0 c -0.39619,0 -0.71428,-0.31809 -0.71428,-0.71429 0,-0.39063 0.31809,-0.71428 0.71428,-0.71428 l 7.14286,0 c 0.39621,0 0.71429,0.32365 0.71429,0.71428 0,0.3962 -0.31808,0.71429 -0.71429,0.71429 M 327.5,566.73721 l -7.14286,0 c -0.39619,0 -0.71428,-0.31809 -0.71428,-0.71429 0,-0.39063 0.31809,-0.71428 0.71428,-0.71428 l 7.14286,0 c 0.39621,0 0.71429,0.32365 0.71429,0.71428 0,0.3962 -0.31808,0.71429 -0.71429,0.71429 m 0,2.85714 -7.14286,0 c -0.39619,0 -0.71428,-0.31809 -0.71428,-0.71428 0,-0.39063 0.31809,-0.71429 0.71428,-0.71429 l 7.14286,0 c 0.39621,0 0.71429,0.32366 0.71429,0.71429 0,0.39619 -0.31808,0.71428 -0.71429,0.71428 m 0,2.85714 -7.14286,0 c -0.39619,0 -0.71428,-0.31809 -0.71428,-0.71428 0,-0.39063 0.31809,-0.71429 0.71428,-0.71429 l 7.14286,0 c 0.39621,0 0.71429,0.32366 0.71429,0.71429 0,0.39619 -0.31808,0.71428 -0.71429,0.71428 m 0,2.85715 -7.14286,0 c -0.39619,0 -0.71428,-0.31809 -0.71428,-0.71429 0,-0.39063 0.31809,-0.71428 0.71428,-0.71428 l 7.14286,0 c 0.39621,0 0.71429,0.32365 0.71429,0.71428 0,0.3962 -0.31808,0.71429 -0.71429,0.71429 m -11.42857,-17.14286 -7.14286,0 c -0.39619,0 -0.71428,-0.31809 -0.71428,-0.71429 0,-0.39062 0.31809,-0.71428 0.71428,-0.71428 l 7.14286,0 c 0.3962,0 0.71428,0.32366 0.71428,0.71428 0,0.3962 -0.31808,0.71429 -0.71428,0.71429 m 0,2.85714 -7.14286,0 c -0.39619,0 -0.71428,-0.31809 -0.71428,-0.71428 0,-0.39063 0.31809,-0.71429 0.71428,-0.71429 l 7.14286,0 c 0.3962,0 0.71428,0.32366 0.71428,0.71429 0,0.39619 -0.31808,0.71428 -0.71428,0.71428 m 0,2.85715 -7.14286,0 c -0.39619,0 -0.71428,-0.3181 -0.71428,-0.71429 0,-0.39063 0.31809,-0.71429 0.71428,-0.71429 l 7.14286,0 c 0.3962,0 0.71428,0.32366 0.71428,0.71429 0,0.39619 -0.31808,0.71429 -0.71428,0.71429 m 0,2.85714 -7.14286,0 c -0.39619,0 -0.71428,-0.31809 -0.71428,-0.71429 0,-0.39063 0.31809,-0.71428 0.71428,-0.71428 l 7.14286,0 c 0.3962,0 0.71428,0.32365 0.71428,0.71428 0,0.3962 -0.31808,0.71429 -0.71428,0.71429 m 0,2.85714 -7.14286,0 c -0.39619,0 -0.71428,-0.31809 -0.71428,-0.71428 0,-0.39063 0.31809,-0.71429 0.71428,-0.71429 l 7.14286,0 c 0.3962,0 0.71428,0.32366 0.71428,0.71429 0,0.39619 -0.31808,0.71428 -0.71428,0.71428 m 0,2.85714 -7.14286,0 c -0.39619,0 -0.71428,-0.31809 -0.71428,-0.71428 0,-0.39063 0.31809,-0.71429 0.71428,-0.71429 l 7.14286,0 c 0.3962,0 0.71428,0.32366 0.71428,0.71429 0,0.39619 -0.31808,0.71428 -0.71428,0.71428 m 0,2.85715 -7.14286,0 c -0.39619,0 -0.71428,-0.31809 -0.71428,-0.71429 0,-0.39063 0.31809,-0.71428 0.71428,-0.71428 l 7.14286,0 c 0.3962,0 0.71428,0.32365 0.71428,0.71428 0,0.3962 -0.31808,0.71429 -0.71428,0.71429 m 12.14286,-11.42857 -8.57143,0 0,-7.14286 8.57143,0 z m 11.42857,0 -8.57143,0 0,-7.14286 8.57143,0 z m -31.42857,-15.71429 31.42857,0 0,5.71429 -31.42857,0 z m 32.85714,-2.85714 -34.28572,0 c -0.78682,0 -1.42857,0.64173 -1.42857,1.42857 l 0,30 c -1.42857,0 -1.42857,-1.42857 -1.42857,-1.42857 l 0,-25 c 0,-0.39063 -0.31808,-0.71429 -0.71428,-0.71429 -0.3962,0 -0.71429,0.32366 -0.71429,0.71429 l 0,26.42857 c 0,1.42857 1.42857,1.42857 1.42857,1.42857 l 37.14286,0 c 0.78683,0 1.42857,-0.64175 1.42857,-1.42857 l 0,-30 c 0,-0.78684 -0.64174,-1.42857 -1.42857,-1.42857"
       id="path2736" />
  </g>
</svg>
