<?xml version="1.0" encoding="UTF-8" standalone="no"?>
<!-- Created with Inkscape (http://www.inkscape.org/) -->

<svg
   xmlns:dc="http://purl.org/dc/elements/1.1/"
   xmlns:cc="http://creativecommons.org/ns#"
   xmlns:rdf="http://www.w3.org/1999/02/22-rdf-syntax-ns#"
   xmlns:svg="http://www.w3.org/2000/svg"
   xmlns="http://www.w3.org/2000/svg"
   xmlns:sodipodi="http://sodipodi.sourceforge.net/DTD/sodipodi-0.dtd"
   xmlns:inkscape="http://www.inkscape.org/namespaces/inkscape"
   width="37.142952"
   height="40"
   viewBox="0 0 37.142952 40.000001"
   id="svg8806"
   version="1.1"
   inkscape:version="0.91 r13725"
   inkscape:export-filename="C:\Users\j1hochre\Desktop\Bilder\Setup@3x.png"
   inkscape:export-xdpi="941.86047"
   inkscape:export-ydpi="941.86047"
   sodipodi:docname="Setup.svg">
  <defs
     id="defs8808" />
  <sodipodi:namedview
     id="base"
     pagecolor="#ffffff"
     bordercolor="#666666"
     borderopacity="1.0"
     inkscape:pageopacity="0.0"
     inkscape:pageshadow="2"
     inkscape:zoom="7.5358946"
     inkscape:cx="1.1451816"
     inkscape:cy="8.7814763"
     inkscape:document-units="px"
     inkscape:current-layer="layer1"
     showgrid="false"
     units="px"
     fit-margin-top="0"
     fit-margin-bottom="0"
     fit-margin-right="0"
     fit-margin-left="0"
     inkscape:window-width="1920"
     inkscape:window-height="1137"
     inkscape:window-x="-8"
     inkscape:window-y="-8"
     inkscape:window-maximized="1" />
  <metadata
     id="metadata8811">
    <rdf:RDF>
      <cc:Work
         rdf:about="">
        <dc:format>image/svg+xml</dc:format>
        <dc:type
           rdf:resource="http://purl.org/dc/dcmitype/StillImage" />
        <dc:title></dc:title>
      </cc:Work>
    </rdf:RDF>
  </metadata>
  <g
     inkscape:label="Ebene 1"
     inkscape:groupmode="layer"
     id="layer1"
     transform="translate(-303.75001,-404.14783)">
    <g
       id="g3335"
       transform="matrix(1.1428601,0,0,1.1428601,-43.39375,-63.450994)">
      <path
         id="path1846"
         d="m 316.25,427.06295 c -2.99316,0 -5.41992,-2.42675 -5.41992,-5.41504 0,-2.99316 2.42676,-5.41503 5.41992,-5.41503 2.99316,0 5.41993,2.42187 5.41993,5.41503 0,2.98829 -2.42677,5.41504 -5.41993,5.41504 m 11.25,-3.33007 c 0.68848,0 1.25,-0.56153 1.25,-1.25 l 0,-1.66504 c 0,-0.68848 -0.56152,-1.25 -1.25,-1.25 l -0.85937,0 c -0.68848,0 -1.39649,-0.45899 -1.57715,-1.01075 -0.18067,-0.55664 -0.4834,-2.29003 0,-2.77832 l 0.61523,-0.61035 c 0.4834,-0.48828 0.4834,-1.28418 0,-1.76758 l -1.17676,-1.18164 c -0.48827,-0.48339 -1.28417,-0.48339 -1.76757,0 l -0.61524,0.61524 c -0.4834,0.4834 -1.29883,0.66406 -1.81153,0.40039 -0.51268,-0.26856 -1.97265,-1.28418 -1.97265,-1.97266 l 0,-0.86426 c 0,-0.68847 -0.56152,-1.25 -1.25,-1.25 l -1.66503,0 c -0.68848,0 -1.25,0.56153 -1.25,1.25 l 0,0.86426 c 0,0.68848 -0.4541,1.39649 -1.01075,1.57715 -0.55664,0.17578 -2.29004,0.47852 -2.77344,-0.005 l -0.61523,-0.61524 c -0.48828,-0.4834 -1.28418,-0.4834 -1.76758,0 l -1.17675,1.17676 c -0.48829,0.48828 -0.48829,1.28418 0,1.77246 l 0.61035,0.61035 c 0.48827,0.48828 0.66893,1.29883 0.40038,1.81152 -0.26367,0.5127 -1.28417,1.97266 -1.96777,1.97266 l -0.86914,0 c -0.68847,0 -1.25,0.56152 -1.25,1.25 l 0,1.66992 c 0,0.6836 0.56153,1.25 1.25,1.25 l 0.86914,0 c 0.6836,0 1.3916,0.4541 1.57226,1.00586 0.18068,0.55664 0.4834,2.29004 -0.005,2.77832 l -0.61524,0.61035 c -0.48827,0.48829 -0.48827,1.28418 0,1.76758 l 1.17677,1.18164 c 0.48827,0.4834 1.28417,0.4834 1.76757,0 l 0.61524,-0.61523 c 0.4834,-0.4834 1.30371,-0.66406 1.81152,-0.40039 0.51269,0.26855 1.97265,1.28418 1.97265,1.97265 l 0,0.86426 c 0,0.6836 0.56153,1.25 1.25,1.25 l 1.66504,0 c 0.68848,0 1.25,-0.5664 1.25,-1.25 l 0,-0.86426 c 0,-0.68847 0.45899,-1.39648 1.01563,-1.57714 0.55663,-0.17579 2.29003,-0.47852 2.77343,0.005 l 0.61524,0.61523 c 0.4834,0.4834 1.2793,0.4834 1.76758,0 l 1.17676,-1.17676 c 0.4834,-0.48828 0.4834,-1.28418 0,-1.76758 l -0.61524,-0.61525 c -0.4834,-0.4834 -0.66406,-1.29883 -0.39551,-1.81153 0.26367,-0.51269 1.28419,-1.97265 1.97266,-1.97265 z"
         style="fill:#0065a3;fill-opacity:1;fill-rule:nonzero;stroke:none"
         inkscape:connector-curvature="0" />
      <path
         id="path1848"
         d="m 332.08496,437.89791 c 0,1.14747 -0.93262,2.08008 -2.08007,2.08008 -1.15235,0 -2.08496,-0.93261 -2.08496,-2.08008 0,-1.15234 0.93261,-2.08496 2.08496,-2.08496 1.14745,0 2.08007,0.93262 2.08007,2.08496 m 3.54004,1.04004 c 0.3418,0 0.625,-0.27832 0.625,-0.625 l 0,-0.83496 c 0,-0.34179 -0.2832,-0.625 -0.625,-0.625 l -0.42969,0 c -0.3418,0 -0.69823,-0.22461 -0.78613,-0.50293 -0.0927,-0.27832 -0.24414,-1.14258 0,-1.38672 l 0.30273,-0.30761 c 0.24414,-0.24414 0.24414,-0.63965 0,-0.88379 l -0.58593,-0.59082 c -0.24414,-0.24414 -0.63965,-0.24414 -0.88379,0 l -0.30761,0.30761 c -0.23927,0.24415 -0.64943,0.33204 -0.90333,0.2002 -0.25391,-0.13184 -0.98632,-0.63965 -0.98632,-0.98633 l 0,-0.43457 c 0,-0.3418 -0.28322,-0.625 -0.625,-0.625 l -0.83497,0 c -0.3418,0 -0.625,0.2832 -0.625,0.625 l 0,0.43457 c 0,0.34668 -0.22461,0.69824 -0.50293,0.79102 -0.27832,0.0879 -1.14745,0.23926 -1.38672,-0.005 l -0.30761,-0.30759 c -0.24415,-0.24414 -0.63965,-0.24414 -0.8838,0 l -0.59081,0.59082 c -0.23926,0.24414 -0.23926,0.63965 0,0.88379 l 0.30761,0.30273 c 0.23926,0.24902 0.33204,0.6543 0.19531,0.9082 -0.13183,0.25391 -0.63965,0.98633 -0.98632,0.98633 l -0.42969,0 c -0.34667,0 -0.625,0.2832 -0.625,0.625 l 0,0.83496 c 0,0.3418 0.27833,0.625 0.625,0.625 l 0.42969,0 c 0.34667,0 0.69824,0.22949 0.79101,0.50293 0.0879,0.27832 0.23926,1.14746 -0.005,1.3916 l -0.30762,0.30762 c -0.23925,0.23926 -0.23925,0.63965 0.005,0.87891 l 0.59081,0.59082 c 0.24415,0.24414 0.63965,0.24414 0.8838,0 l 0.30272,-0.30274 c 0.24415,-0.24414 0.6543,-0.33691 0.90822,-0.20508 0.2539,0.13672 0.98143,0.64454 0.98143,0.98633 l 0,0.43457 c 0,0.3418 0.2832,0.625 0.625,0.625 l 0.83985,0 c 0.34179,0 0.625,-0.2832 0.625,-0.625 l 0,-0.43457 c 0,-0.34179 0.2246,-0.69824 0.50293,-0.78613 0.27832,-0.0879 1.14746,-0.23926 1.38672,0 l 0.30762,0.30762 c 0.24413,0.24414 0.63965,0.24414 0.88378,0 l 0.58594,-0.58594 c 0.24414,-0.24414 0.24414,-0.64453 0,-0.88379 l -0.30274,-0.30762 c -0.24413,-0.24414 -0.33202,-0.65429 -0.20018,-0.9082 0.13183,-0.25391 0.63965,-0.98633 0.98143,-0.98633 z"
         style="fill:#0065a3;fill-opacity:1;fill-rule:nonzero;stroke:none"
         inkscape:connector-curvature="0" />
    </g>
  </g>
</svg>
