<?xml version="1.0" encoding="UTF-8" standalone="no"?>
<!-- Created with Inkscape (http://www.inkscape.org/) -->

<svg
   xmlns:dc="http://purl.org/dc/elements/1.1/"
   xmlns:cc="http://creativecommons.org/ns#"
   xmlns:rdf="http://www.w3.org/1999/02/22-rdf-syntax-ns#"
   xmlns:svg="http://www.w3.org/2000/svg"
   xmlns="http://www.w3.org/2000/svg"
   xmlns:sodipodi="http://sodipodi.sourceforge.net/DTD/sodipodi-0.dtd"
   xmlns:inkscape="http://www.inkscape.org/namespaces/inkscape"
   width="39.99754"
   height="40"
   viewBox="0 0 39.997541 40"
   id="svg7623"
   version="1.1"
   inkscape:version="0.91 r13725"
   inkscape:export-filename="C:\Users\j1hochre\Desktop\Bilder\Sport@3x.png"
   inkscape:export-xdpi="1012.5"
   inkscape:export-ydpi="1012.5"
   sodipodi:docname="Sport.svg">
  <defs
     id="defs7625" />
  <sodipodi:namedview
     id="base"
     pagecolor="#ffffff"
     bordercolor="#666666"
     borderopacity="1.0"
     inkscape:pageopacity="0.0"
     inkscape:pageshadow="2"
     inkscape:zoom="15.071789"
     inkscape:cx="5.5764652"
     inkscape:cy="22.163543"
     inkscape:document-units="px"
     inkscape:current-layer="layer1"
     showgrid="false"
     fit-margin-top="0"
     fit-margin-left="0"
     fit-margin-right="0"
     fit-margin-bottom="0"
     units="px"
     inkscape:window-width="1920"
     inkscape:window-height="1137"
     inkscape:window-x="-8"
     inkscape:window-y="-8"
     inkscape:window-maximized="1" />
  <metadata
     id="metadata7628">
    <rdf:RDF>
      <cc:Work
         rdf:about="">
        <dc:format>image/svg+xml</dc:format>
        <dc:type
           rdf:resource="http://purl.org/dc/dcmitype/StillImage" />
        <dc:title></dc:title>
      </cc:Work>
    </rdf:RDF>
  </metadata>
  <g
     inkscape:label="Ebene 1"
     inkscape:groupmode="layer"
     id="layer1"
     transform="translate(-350.71521,-575.93363)">
    <path
       inkscape:connector-curvature="0"
       style="fill:#0065a3;fill-opacity:1;fill-rule:nonzero;stroke:none"
       d="m 370.71786,590.67974 -5.15624,3.58722 1.82291,-6.0026 -5,-3.79557 6.26952,-0.13013 2.06381,-5.91796 2.0573,5.91796 6.27604,0.13013 -5,3.79557 1.8164,6.0026 z m -10.1172,1.99868 c -7.35676,-2.32422 -8.20962,-10.09766 -8.22916,-13.41146 l 6.67319,0 0,3.84116 c 0,3.5026 1.01561,7.05078 2.70181,9.92838 -0.35154,-0.11067 -0.72917,-0.22787 -1.14584,-0.35808 m 21.77736,-9.5703 0,-3.84116 6.67968,0 c -0.026,3.3138 -0.89192,11.0612 -8.23566,13.41146 -0.41667,0.13666 -0.79428,0.25392 -1.14584,0.36458 1.68618,-2.8841 2.70833,-6.43228 2.70833,-9.93488 z m -4.22526,12.12238 c 0.8203,-0.22784 1.86197,-0.54035 3.17708,-0.96354 10.66406,-3.41796 9.32942,-16.66666 9.32942,-16.66666 l -8.28124,0 0,-1.66667 -23.33333,0 0,1.66667 -8.27473,0 c 0,0 -1.34767,13.30078 9.32941,16.66666 1.30208,0.41016 2.34375,0.72266 3.16407,0.95052 1.61458,1.95964 3.60026,3.35939 5.78776,3.84115 l 0,11.9336 c -5.65756,0.34505 -10,2.42839 -10,4.9414 l 23.33333,0 c 0,-2.51301 -4.34896,-4.59635 -10,-4.9414 l 0,-11.9336 c 2.16797,-0.48176 4.15364,-1.86848 5.76823,-3.82813"
       id="path2166-4" />
  </g>
</svg>
